<?xml version="1.0" encoding="UTF-8" standalone="no"?>
<svg
   xmlns:dc="http://purl.org/dc/elements/1.1/"
   xmlns:cc="http://creativecommons.org/ns#"
   xmlns:rdf="http://www.w3.org/1999/02/22-rdf-syntax-ns#"
   xmlns:svg="http://www.w3.org/2000/svg"
   xmlns="http://www.w3.org/2000/svg"
   xmlns:sodipodi="http://sodipodi.sourceforge.net/DTD/sodipodi-0.dtd"
   xmlns:inkscape="http://www.inkscape.org/namespaces/inkscape"
   inkscape:version="1.0 (1.0+r73+1)"
   height="300"
   width="300"
   sodipodi:docname="skyrocket.svg"
   version="1.1"
   viewBox="0 0 300 300.00001"
   data-name="Layer 2"
   id="Layer_2">
  <metadata
     id="metadata85">
    <rdf:RDF>
      <cc:Work
         rdf:about="">
        <dc:format>image/svg+xml</dc:format>
        <dc:type
           rdf:resource="http://purl.org/dc/dcmitype/StillImage" />
        <dc:title>141-150</dc:title>
      </cc:Work>
    </rdf:RDF>
  </metadata>
  <defs
     id="defs83" />
  <sodipodi:namedview
     inkscape:current-layer="Layer_2"
     inkscape:window-maximized="1"
     inkscape:window-y="26"
     inkscape:window-x="0"
     inkscape:cy="150"
     inkscape:cx="150"
     inkscape:zoom="1.48"
     fit-margin-bottom="0"
     fit-margin-right="0"
     fit-margin-left="0"
     fit-margin-top="0"
     showgrid="false"
     id="namedview81"
     inkscape:window-height="669"
     inkscape:window-width="1366"
     inkscape:pageshadow="2"
     inkscape:pageopacity="0"
     guidetolerance="10"
     gridtolerance="10"
     objecttolerance="10"
     borderopacity="1"
     bordercolor="#666666"
     pagecolor="#ffffff" />
  <title
     id="title2">141-150</title>
  <circle
     r="135"
     cy="150"
     cx="150"
     id="path966"
     style="opacity:1;fill:#00275e;stroke-width:20;stroke:#e6e6e6;stroke-opacity:1;stroke-miterlimit:4;stroke-dasharray:none;fill-opacity:1" />
  <g
     transform="matrix(1.1322691,0,0,1.1322691,-11.369473,-12.147362)"
     id="g1047">
    <path
       d="m 125.13065,127.66645 c 0,0 -29.310741,15.64723 -36.248938,52.97995 0,0 28.546278,6.04794 66.769258,-25.56585"
       fill="#eb773a"
       id="path6"
       style="stroke-width:0.96767" />
    <path
       d="m 124.76293,132.42738 c 0,0 -12.5023,11.2153 -16.02462,19.13085 -3.52232,7.91554 -8.11876,19.49856 -8.11876,19.49856 0,0 22.01451,1.87728 42.71298,-10.78953 20.69847,-12.6668 0.96767,-36.35538 -18.5696,-27.83988 z"
       fill="#ffae46"
       id="path8"
       style="stroke-width:0.96767" />
    <path
       d="m 137.18782,128.48897 c -0.75478,1.26764 -13.63448,8.52517 -16.04398,18.99537 l 4.19969,-3.18364 c 0,0 -7.1414,10.00571 -10.17021,15.76335 0,0 17.41806,-6.9382 16.87617,-6.5221 l -4.92544,3.73521 c 0,0 13.24741,-0.28062 22.25642,-8.33164 9.00901,-8.05102 -3.37717,-22.09192 -3.37717,-22.09192 z"
       fill="#fad374"
       id="path10"
       style="stroke-width:0.96767" />
    <path
       d="m 176.05914,128.3922 c 0,0 -2.27403,14.75697 -7.14141,18.38574 -4.86738,3.62876 -20.66944,15.6569 -20.66944,15.6569 l -2.62238,-3.46426 c 0,0 10.89596,-19.42114 12.82163,-27.9947 1.92566,-8.57356 17.6116,-2.58368 17.6116,-2.58368 z"
       fill="#2096ba"
       id="path12"
       style="stroke-width:0.96767" />
    <path
       d="m 176.05914,128.3922 c 0,0 -2.27403,14.75697 -7.14141,18.38574 -4.86738,3.62876 -20.66944,15.6569 -20.66944,15.6569 l -2.62238,-3.46426 c 0,0 10.89596,-19.42114 12.82163,-27.9947 1.92566,-8.57356 17.6116,-2.58368 17.6116,-2.58368 z"
       fill="#363636"
       opacity="0.61"
       id="path14"
       style="stroke-width:0.96767" />
    <path
       d="m 160.32482,107.62599 c 0,0 -14.82471,-1.79987 -19.68242,1.93534 -4.8577,3.73521 -20.66944,15.65691 -20.66944,15.65691 l 2.62239,3.46426 c 0,0 21.64679,-5.2351 30.42356,-4.76094 8.77677,0.47416 7.30591,-16.29557 7.30591,-16.29557 z"
       fill="#2096ba"
       id="path16"
       style="stroke-width:0.96767" />
    <path
       d="m 160.32482,107.62599 c 0,0 -14.82471,-1.79987 -19.68242,1.93534 -4.8577,3.73521 -20.66944,15.65691 -20.66944,15.65691 l 2.62239,3.46426 c 0,0 21.64679,-5.2351 30.42356,-4.76094 8.77677,0.47416 7.30591,-16.29557 7.30591,-16.29557 z"
       fill="#363636"
       opacity="0.61"
       id="path18"
       style="stroke-width:0.96767" />
    <path
       d="m 231.49698,82.853629 a 90.215913,90.215913 0 0 0 9.42511,-19.575973 c 0,0 -8.61227,0.09677 -21.48228,3.928742 1.02573,6.551129 6.26082,11.776549 12.05717,15.647231 z"
       fill="#2096ba"
       id="path20"
       style="stroke-width:0.96767" />
    <ellipse
       cx="90.901268"
       cy="195.63258"
       rx="9.2896366"
       ry="10.557284"
       transform="rotate(-37.15)"
       fill="#2096ba"
       id="ellipse22"
       style="stroke-width:0.96767" />
    <path
       d="m 270.99729,40.111626 c 0,0 -81.09079,20.166252 -122.29419,79.871514 0,0 -9.67671,10.32505 -5.00286,16.06333 4.67385,5.73829 20.25334,1.17088 20.25334,1.17088 0,0 51.19945,-14.53441 107.04371,-97.105724 z"
       fill="#2096ba"
       id="path24"
       style="stroke-width:0.96767" />
    <path
       d="m 148.7031,119.98314 c 0,0 -10.2186,-1.23862 -13.54739,1.30636 -3.32878,2.54497 -14.24411,10.78952 -14.24411,10.78952 l 1.80955,2.39015 c 0,0 14.92147,-3.60941 20.95974,-3.2804 6.03826,0.329 5.02221,-11.20563 5.02221,-11.20563 z"
       fill="#2096ba"
       id="path26"
       style="stroke-width:0.96767" />
    <path
       d="m 161.01187,136.23033 c 0,0 -1.56763,10.17022 -4.92545,12.70551 -3.35781,2.5353 -14.24411,10.78953 -14.24411,10.78953 l -1.79986,-2.36112 c 0,0 7.50912,-13.38288 8.83483,-19.29535 1.32571,-5.91246 12.13459,-1.83857 12.13459,-1.83857 z"
       fill="#2096ba"
       id="path28"
       style="stroke-width:0.96767" />
    <path
       d="m 148.7031,119.98314 c 0,0 -10.2186,-1.23862 -13.54739,1.30636 -3.32878,2.54497 -14.24411,10.78952 -14.24411,10.78952 l 1.80955,2.39015 c 0,0 14.92147,-3.60941 20.95974,-3.2804 6.03826,0.329 5.02221,-11.20563 5.02221,-11.20563 z"
       fill="#363636"
       opacity="0.29"
       id="path30"
       style="stroke-width:0.96767" />
    <path
       d="m 161.01187,136.23033 c 0,0 -1.56763,10.17022 -4.92545,12.70551 -3.35781,2.5353 -14.24411,10.78953 -14.24411,10.78953 l -1.79986,-2.36112 c 0,0 7.50912,-13.38288 8.83483,-19.29535 1.32571,-5.91246 12.13459,-1.83857 12.13459,-1.83857 z"
       fill="#363636"
       opacity="0.29"
       id="path32"
       style="stroke-width:0.96767" />
    <path
       d="m 231.60342,54.655713 c 0,0 -0.28062,13.711889 14.23443,18.792159 l -8.41873,9.560584 c 0,0 -18.23091,-10.24763 -15.40531,-23.707925 z"
       fill="#2096ba"
       id="path34"
       style="stroke-width:0.96767" />
    <path
       d="m 179.53308,86.443686 c 0,0 0.1645,23.224094 21.82096,29.833274 l -16.08268,10.99274 c 0,0 -23.22409,-8.06069 -18.91795,-28.720457 z"
       fill="#2096ba"
       id="path36"
       style="stroke-width:0.96767" />
    <circle
       cx="124.1169"
       cy="195.02118"
       r="3.2707262"
       transform="rotate(-37.15)"
       fill="#2096ba"
       id="circle38"
       style="stroke-width:0.96767" />
    <circle
       cx="105.30377"
       cy="195.72694"
       r="8.534853"
       transform="rotate(-36.869898)"
       fill="#2096ba"
       id="circle40"
       style="stroke-width:0.96767" />
    <path
       d="m 231.60342,54.655713 c 0,0 -0.28062,13.711889 14.23443,18.792159 l -8.41873,9.560584 c 0,0 -18.23091,-10.24763 -15.40531,-23.707925 z"
       fill="#606060"
       opacity="0.61"
       id="path42"
       style="stroke-width:0.96767" />
    <path
       d="m 179.53308,86.443686 c 0,0 0.1645,23.224094 21.82096,29.833274 l -16.08268,10.99274 c 0,0 -23.22409,-8.06069 -18.91795,-28.720457 z"
       fill="#606060"
       opacity="0.61"
       id="path44"
       style="stroke-width:0.96767" />
    <circle
       cx="124.1169"
       cy="195.02118"
       r="3.2707262"
       transform="rotate(-37.15)"
       fill="#606060"
       opacity="0.61"
       id="circle46"
       style="stroke-width:0.96767" />
    <circle
       cx="105.30377"
       cy="195.72694"
       r="8.534853"
       transform="rotate(-36.869898)"
       fill="#606060"
       opacity="0.61"
       id="circle48"
       style="stroke-width:0.96767" />
    <path
       d="m 247.16356,142.78146 a 0.96767042,0.96767042 0 0 0 0,1.93534 0.96767042,0.96767042 0 0 0 0,-1.93534 z"
       fill="#ffffff"
       id="path50"
       style="stroke-width:0.96767" />
    <path
       d="m 198.14138,181.32377 v 0.61931 a 0.96767042,0.96767042 0 0 0 1.93534,0 v -0.61931 a 0.96767042,0.96767042 0 0 0 -1.93534,0 z"
       fill="#ffffff"
       id="path52"
       style="stroke-width:0.96767" />
    <path
       d="m 130.36574,196.72908 v 0.61931 a 0.96767042,0.96767042 0 0 0 1.93534,0 v -0.61931 a 0.96767042,0.96767042 0 0 0 -1.93534,0 z"
       fill="#ffffff"
       id="path54"
       style="stroke-width:0.96767" />
    <path
       d="m 193.5643,149.55515 a 0.96767042,0.96767042 0 0 0 0,1.93534 0.96767042,0.96767042 0 0 0 0,-1.93534 z"
       fill="#ffffff"
       id="path56"
       style="stroke-width:0.96767" />
    <path
       d="m 77.734149,147.68755 a 0.96767042,0.96767042 0 0 0 0,1.93534 0.96767042,0.96767042 0 0 0 0,-1.93534 z"
       fill="#ffffff"
       id="path58"
       style="stroke-width:0.96767" />
    <path
       d="m 34.24704,150.52282 v 0.61931 a 0.9676705,0.9676705 0 0 0 1.935341,0 v -0.61931 a 0.9676705,0.9676705 0 0 0 -1.935341,0 z"
       fill="#ffffff"
       id="path60"
       style="stroke-width:0.96767" />
    <path
       d="m 54.935834,180.97541 a 0.96767042,0.96767042 0 0 0 0,1.93534 0.96767042,0.96767042 0 0 0 0,-1.93534 z"
       fill="#ffffff"
       id="path62"
       style="stroke-width:0.96767" />
    <path
       d="m 86.975401,126.13753 a 0.96767042,0.96767042 0 0 0 0,1.93534 0.96767042,0.96767042 0 0 0 0,-1.93534 z"
       fill="#ffffff"
       id="path64"
       style="stroke-width:0.96767" />
    <path
       d="m 134.41061,95.336577 a 0.9676705,0.9676705 0 0 0 0,1.935341 0.9676705,0.9676705 0 0 0 0,-1.935341 z"
       fill="#ffffff"
       id="path66"
       style="stroke-width:0.96767" />
    <path
       d="m 163.37298,216.09217 a 0.96767042,0.96767042 0 0 0 0,1.93534 0.96767042,0.96767042 0 0 0 0,-1.93534 z"
       fill="#ffffff"
       id="path68"
       style="stroke-width:0.96767" />
    <path
       d="m 227.44244,161.69941 c -6.22212,0 -6.24147,9.67671 0,9.67671 6.24147,0 6.24147,-9.67671 0,-9.67671 z"
       fill="#ffae46"
       id="path70"
       style="stroke-width:0.96767" />
    <path
       d="m 53.706892,156.15466 c -6.222121,0 -6.241474,9.67671 0,9.67671 6.241474,0 6.231798,-9.67671 0,-9.67671 z"
       fill="#ffae46"
       id="path72"
       style="stroke-width:0.96767" />
    <path
       d="m 146.4581,219.79835 a 4.8383521,4.8383521 0 0 0 -6.84143,0 5.0318862,5.0318862 0 0 0 -1.4128,3.42555 v 0.61931 a 4.9931794,4.9931794 0 0 0 1.4128,3.42555 4.8383521,4.8383521 0 0 0 6.84143,0 5.0318862,5.0318862 0 0 0 1.4128,-3.42555 v -0.61931 a 4.9931794,4.9931794 0 0 0 -1.4128,-3.42555 z"
       fill="#00aee1"
       id="path74"
       style="stroke-width:0.96767" />
  </g>
</svg>
